<svg width="95" height="95" viewBox="0 0 95 95" fill="none" xmlns="http://www.w3.org/2000/svg">
<path d="M25.0066 94.9856C24.2399 94.5592 23.3583 94.3867 22.6108 93.8548C21.701 93.2069 20.9685 92.341 20.4804 91.3364C19.9924 90.3318 19.7644 89.2207 19.8174 88.1051V7.12965C19.8174 4.34582 20.9051 2.18009 23.435 0.862443C24.284 0.420192 25.228 0.191581 26.1853 0.196426C40.32 0.196426 54.4516 0.196426 68.58 0.196426C72.1208 0.196426 74.8088 2.99463 74.9574 6.6505C74.9574 6.77029 74.9574 6.89486 74.9574 7.01944C74.9574 34.0496 74.9574 61.0797 74.9574 88.1099C74.9574 90.8985 73.8218 93.0451 71.2871 94.3387C70.7397 94.583 70.1781 94.7942 69.6053 94.9712L25.0066 94.9856ZM24.3789 46.7645C24.3789 58.5834 24.3789 70.4023 24.3789 82.2212C24.3789 82.9974 24.5657 83.1795 25.3372 83.1795C40.082 83.1571 54.8253 83.1571 69.567 83.1795C70.3624 83.1795 70.5253 82.9639 70.5253 82.2212C70.5029 58.5834 70.5029 34.9456 70.5253 11.3078C70.5253 10.5364 70.3432 10.3495 69.567 10.3495C54.8253 10.3782 40.0804 10.3782 25.3324 10.3495C24.537 10.3495 24.398 10.5699 24.4028 11.3078C24.3869 23.1267 24.3789 34.9456 24.3789 46.7645ZM50.5785 88.6321C50.5925 87.7947 50.2732 86.986 49.6909 86.384C49.4026 86.0859 49.0584 85.8475 48.678 85.6824C48.2975 85.5173 47.8883 85.4288 47.4736 85.4219C46.6362 85.4079 45.8275 85.7272 45.2255 86.3094C44.6234 86.8917 44.2774 87.6893 44.2634 88.5267C44.2494 89.3642 44.5687 90.1729 45.1509 90.7749C45.7332 91.3769 46.5308 91.723 47.3682 91.737C48.2057 91.751 49.0144 91.4317 49.6164 90.8494C50.2185 90.2672 50.5645 89.4696 50.5785 88.6321ZM47.3395 6.31989C49.4956 6.31989 51.6518 6.31989 53.8079 6.31989C54.3302 6.31989 54.8621 6.31989 54.8764 5.61555C54.8908 4.91121 54.3638 4.81539 53.7888 4.81539C49.534 4.81539 45.2808 4.81539 41.0292 4.81539C40.4973 4.81539 39.9942 4.87767 39.9702 5.54368C39.9367 6.30073 40.4925 6.3151 41.0531 6.3151C43.1326 6.3151 45.2312 6.31989 47.3251 6.31989H47.3395Z" fill="#4772FD"/>
<path d="M24.3789 46.7645C24.3789 34.9456 24.3789 23.1267 24.3789 11.3078C24.3789 10.5604 24.513 10.3495 25.3084 10.3495C40.0565 10.3783 54.8014 10.3783 69.543 10.3495C70.3097 10.3495 70.5013 10.5268 70.5013 11.3078C70.479 34.9456 70.479 58.5834 70.5013 82.2212C70.5013 82.9687 70.3624 83.1795 69.543 83.1795C54.8014 83.1508 40.0581 83.1508 25.3132 83.1795C24.5466 83.1795 24.3549 83.007 24.3549 82.2212C24.3709 70.3991 24.3789 58.5802 24.3789 46.7645Z" fill="white"/>
<path d="M50.5641 88.6322C50.5572 89.0468 50.4687 89.456 50.3036 89.8365C50.1385 90.2169 49.9001 90.5612 49.602 90.8495C49.3039 91.1378 48.952 91.3645 48.5662 91.5168C48.1805 91.6691 47.7685 91.7439 47.3539 91.737C46.9392 91.7301 46.53 91.6416 46.1495 91.4765C45.7691 91.3114 45.4249 91.073 45.1366 90.7749C44.8483 90.4768 44.6215 90.1248 44.4692 89.7391C44.3169 89.3534 44.2421 88.9414 44.249 88.5267C44.2559 88.1121 44.3445 87.7029 44.5095 87.3224C44.6746 86.942 44.913 86.5978 45.2111 86.3095C45.5092 86.0212 45.8612 85.7944 46.2469 85.6421C46.6327 85.4898 47.0446 85.415 47.4593 85.4219C47.8739 85.4288 48.2832 85.5174 48.6636 85.6824C49.0441 85.8475 49.3883 86.0859 49.6766 86.384C49.9649 86.6821 50.1917 87.0341 50.3439 87.4198C50.4962 87.8055 50.571 88.2175 50.5641 88.6322Z" fill="#FDFDFD"/>
<path d="M47.3251 6.31992C45.2312 6.31992 43.1326 6.31992 41.0387 6.31992C40.4781 6.31992 39.9223 6.31992 39.9559 5.5485C39.9798 4.88249 40.4829 4.82019 41.0148 4.82019C45.2696 4.82019 49.5228 4.82019 53.7744 4.82019C54.3494 4.82019 54.8716 4.90165 54.862 5.62037C54.8525 6.33909 54.3158 6.32471 53.7936 6.32471C51.6374 6.31513 49.4812 6.31992 47.3251 6.31992Z" fill="white"/>
<g clip-path="url(#clip0_766_1686)">
<path d="M44.1496 64.993C38.8677 64.993 33.5859 64.9953 28.304 65C28.0504 65 28 64.9496 28 64.696C28.0084 52.2325 28.0084 39.768 28 27.3026C28 27.0504 28.0504 27 28.304 27C40.7694 27.0084 53.2339 27.0084 65.6974 27C65.951 27 66 27.0504 66 27.3026C65.9916 39.7671 65.9916 52.2315 66 64.696C66 64.9496 65.951 65 65.6974 65C60.2175 64.9897 54.7381 64.9874 49.2592 64.993C49.1919 63.7111 49.2493 62.4291 49.2283 61.1486C49.2283 60.9538 49.3516 60.9398 49.4931 60.9188C50.7824 60.7291 52.0316 60.3281 53.1904 59.7321C57.8558 57.3042 58.2229 52.3852 56.4128 48.8476C55.5161 47.0921 54.0212 45.9391 52.284 45.0788C50.5467 44.2186 48.7085 43.7324 46.8872 43.1496C45.6389 42.7489 44.3836 42.3608 43.253 41.6659C42.1644 40.9976 41.7931 40.0393 41.978 38.791C42.1503 37.6366 42.9994 37.0468 43.9969 36.6377C45.0189 36.2395 46.1043 36.0288 47.201 36.0156C49.1888 35.9233 51.1637 36.3788 52.9102 37.3326C53.1414 37.4601 53.2269 37.4222 53.3571 37.2149C54.1501 35.9689 54.9525 34.7295 55.7641 33.4966C55.9126 33.2724 55.8608 33.1939 55.6506 33.0762C53.7982 31.9989 51.7408 31.3212 49.6108 31.0868C49.3418 31.0546 49.2115 30.9831 49.2185 30.6665C49.2423 29.5695 49.2185 28.4711 49.2325 27.3727C49.2325 27.1471 49.1793 27.0813 48.9523 27.0827C47.4476 27.0939 45.9425 27.0939 44.4368 27.0827C44.1973 27.0827 44.1566 27.1569 44.1566 27.3755C44.1664 28.5719 44.1566 29.7698 44.1678 30.9663C44.1678 31.2465 44.0866 31.3334 43.8204 31.3978C42.1265 31.8181 40.5644 32.5186 39.274 33.7151C37.3126 35.5434 36.6233 37.8201 36.968 40.44C37.1759 42.1788 38.0042 43.7841 39.3007 44.9611C40.4677 46.0427 41.8561 46.7404 43.3272 47.291C45.164 47.9789 47.0778 48.4385 48.9117 49.139C49.7271 49.45 50.5285 49.7919 51.2164 50.3509C53.0377 51.8374 52.6384 54.5848 50.4738 55.4436C49.3152 55.8996 48.0757 56.1146 46.8312 56.0755C44.4494 56.0166 42.2961 55.2797 40.5266 53.6167C40.3865 53.4878 40.308 53.4892 40.1721 53.6167C39.0672 54.674 37.9571 55.7266 36.8419 56.7746C36.7284 56.8825 36.6737 56.9455 36.8223 57.087C38.7716 59.0082 41.2461 60.3093 43.9339 60.8263C44.1188 60.8656 44.1748 60.923 44.1734 61.1066C44.1524 62.4025 44.1524 63.697 44.1496 64.993Z" fill="white"/>
<path d="M44.1496 64.993C44.1496 63.697 44.1496 62.4025 44.1622 61.1065C44.1622 60.923 44.1076 60.8656 43.9227 60.8263C41.2349 60.3093 38.7604 59.0082 36.8111 57.087C36.6625 56.9469 36.7172 56.8825 36.8307 56.7746C37.9449 55.7247 39.055 54.6721 40.1609 53.6167C40.301 53.4878 40.3795 53.4864 40.5154 53.6167C42.2891 55.2797 44.4382 56.0166 46.82 56.0755C48.0645 56.1146 49.304 55.8996 50.4626 55.4436C52.6272 54.5848 53.0321 51.8374 51.2052 50.3509C50.5173 49.7905 49.7159 49.45 48.9005 49.139C47.0666 48.4385 45.1528 47.9789 43.316 47.291C41.8449 46.7404 40.4565 46.0427 39.2895 44.9611C37.993 43.7841 37.1647 42.1787 36.9568 40.44C36.6121 37.8145 37.3014 35.5364 39.2628 33.7151C40.5532 32.513 42.1153 31.8139 43.8092 31.3978C44.0754 31.3334 44.1608 31.2423 44.1566 30.9663C44.1412 29.7698 44.1566 28.5719 44.1454 27.3755C44.1454 27.1569 44.1846 27.0799 44.4256 27.0827C45.9322 27.0939 47.4374 27.0939 48.9411 27.0827C49.1737 27.0827 49.2297 27.1471 49.2213 27.3727C49.2101 28.4711 49.2311 29.5695 49.2073 30.6665C49.2003 30.9845 49.3306 31.056 49.5996 31.0868C51.7296 31.3212 53.787 31.9989 55.6394 33.0762C55.8496 33.1995 55.9014 33.278 55.7529 33.4965C54.9384 34.7285 54.1361 35.968 53.3459 37.2149C53.2157 37.4222 53.1302 37.46 52.899 37.3326C51.1525 36.3788 49.1776 35.9233 47.1898 36.0156C46.0977 36.0285 45.0167 36.2373 43.9983 36.632C43.0008 37.0411 42.1518 37.631 41.9794 38.7854C41.7945 40.0337 42.1658 40.992 43.2544 41.6603C44.385 42.3608 45.6361 42.7433 46.8886 43.144C48.71 43.7268 50.5621 44.22 52.2854 45.0732C54.0086 45.9264 55.5175 47.0865 56.4142 48.842C58.2229 52.3796 57.8558 57.2986 53.1918 59.7265C52.033 60.3225 50.7838 60.7235 49.4945 60.9132C49.3544 60.9342 49.2255 60.9482 49.2297 61.143C49.2508 62.4235 49.1933 63.7054 49.2606 64.9874L44.1496 64.993Z" fill="#4772FD"/>
</g>
<defs>
<clipPath id="clip0_766_1686">
<rect width="38" height="38" fill="white" transform="translate(28 27)"/>
</clipPath>
</defs>
</svg>
