<svg width="118" height="104" viewBox="0 0 118 104" fill="none" xmlns="http://www.w3.org/2000/svg">
<path d="M117.977 18.7756C116.991 20.9167 116.562 23.2329 115.914 25.4753C111.992 39.0868 108.089 52.7044 104.206 66.3282C103.559 68.5799 102.487 69.3635 100.132 69.3635C79.7445 69.3635 59.358 69.3635 38.9723 69.3635C37.8199 69.3635 36.746 69.4972 35.8863 70.3245C35.0267 71.1519 34.5818 72.2075 34.8469 73.4359C34.9549 74.0597 35.2387 74.6398 35.6649 75.1081C36.0911 75.5763 36.642 75.9133 37.253 76.0794C37.8841 76.2406 38.5362 76.3043 39.1866 76.2683C59.6138 76.2683 80.0387 76.2683 100.461 76.2683C103.211 76.2683 104.965 78.6906 103.918 81.0644C103.328 82.4034 102.268 83.1386 100.775 83.1594C99.0509 83.1755 97.3177 83.1594 95.5731 83.2285C98.3871 83.8323 100.685 85.2451 102.317 87.6074C103.115 88.7304 103.676 90.0047 103.964 91.3523C104.252 92.6998 104.262 94.092 103.992 95.4433C103.549 97.7866 102.31 99.9049 100.486 101.44C98.6609 102.976 96.362 103.834 93.9775 103.871C91.593 103.907 89.269 103.119 87.3984 101.64C85.5278 100.16 84.2253 98.0808 83.7109 95.7522C82.5078 90.2854 85.1467 86.1209 91.7519 83.2147H46.8105C53.5172 84.828 55.7988 90.2301 55.3909 94.4846C55.1515 96.8619 54.1029 99.0848 52.4206 100.781C50.7382 102.478 48.5242 103.545 46.1491 103.805C41.3876 104.312 36.6999 101.295 35.2686 96.7893C34.3237 93.8231 34.6026 90.9792 36.1606 88.2827C37.684 85.6507 40.0417 84.0997 42.8902 83.1571C41.33 83.1571 39.7697 83.1709 38.2094 83.1571C35.8785 83.157 33.615 82.3744 31.7818 80.9348C29.9485 79.4952 28.6516 77.4819 28.0988 75.2174C26.9649 70.7256 29.1105 65.9456 33.3442 63.6824C33.9619 63.3552 33.9895 63.0763 33.8536 62.4702C31.3461 51.2341 28.8524 39.9979 26.3725 28.7618C24.8722 21.9883 23.3534 15.2172 21.8807 8.43909C21.6917 7.57252 21.4059 7.24295 20.4242 7.25447C14.9436 7.319 9.46306 7.28904 3.98481 7.28443C1.75618 7.28443 0.251221 5.88318 0.251221 3.8274C0.251221 1.77162 1.75849 0.381897 3.98712 0.381897C10.6553 0.381897 17.3236 0.381897 23.9918 0.381897C26.1398 0.381897 27.352 1.30377 27.8406 3.39412C28.6081 6.65986 29.3709 9.92561 30.0324 13.2144C30.2052 14.0671 30.5394 14.1939 31.3023 14.1916C44.4098 14.1701 57.5158 14.1647 70.6203 14.1755C84.9508 14.1755 99.2837 14.2054 113.617 14.1432C115.691 14.1432 117.136 14.8069 117.977 16.706V18.7756ZM109.911 21.1033H31.8554C31.8612 21.2199 31.8735 21.3361 31.8923 21.4513C34.8561 34.8493 37.8169 48.2456 40.7745 61.6405C40.9336 62.3688 41.277 62.4748 41.9269 62.4748C60.3168 62.4579 78.7066 62.4579 97.0965 62.4748C97.8962 62.4748 98.2028 62.2443 98.4079 61.4953C99.4242 57.787 100.482 54.0926 101.542 50.3959C104.322 40.6701 107.106 30.9374 109.917 21.1033H109.911ZM48.5252 93.5235C48.5413 91.7097 46.9327 90.0803 45.1097 90.0665C43.2867 90.0527 41.6688 91.659 41.6526 93.4821C41.6365 95.3051 43.2452 96.9253 45.0682 96.9391C46.8912 96.9529 48.5091 95.3488 48.5252 93.5235ZM97.2717 93.4728C97.2486 91.6475 95.6146 90.0412 93.8146 90.0642C92.0147 90.0872 90.3829 91.719 90.406 93.5212C90.429 95.3235 92.0608 96.9529 93.863 96.9299C95.6653 96.9068 97.2924 95.2866 97.2717 93.4751V93.4728Z" fill="#4772FD"/>
</svg>
