<svg width="127" height="95" viewBox="0 0 127 95" fill="none" xmlns="http://www.w3.org/2000/svg">
<g clip-path="url(#clip0_762_1663)">
<path d="M120.483 6.49899V76.2676H6.51675V6.49899H120.483ZM122.668 0H4.33172C1.95503 0 0 1.9497 0 4.31992V78.4085C0 80.8169 1.95503 82.7284 4.33172 82.7284H122.668C125.083 82.7284 127 80.7787 127 78.4085V4.31992C127 1.9497 125.045 0 122.668 0Z" fill="#4772FD"/>
<path d="M65.3208 81.1226H61.2574V90.8711H65.3208V81.1226Z" fill="#4772FD"/>
<path d="M88.2444 87.4305H37.0688V95H88.2444V87.4305Z" fill="#4772FD"/>
<path d="M93.1084 94.993C92.7372 94.7866 92.3103 94.703 91.9484 94.4455C91.5079 94.1318 91.1532 93.7125 90.9168 93.2261C90.6805 92.7396 90.5701 92.2016 90.5958 91.6614V52.4523C90.5958 51.1043 91.1225 50.0556 92.3475 49.4176C92.7586 49.2035 93.2157 49.0928 93.6792 49.0951C100.523 49.0951 107.366 49.0951 114.207 49.0951C115.922 49.0951 117.223 50.45 117.295 52.2203C117.295 52.2783 117.295 52.3386 117.295 52.3989C117.295 65.4872 117.295 78.5755 117.295 91.6637C117.295 93.014 116.745 94.0534 115.518 94.6798C115.253 94.7981 114.981 94.9004 114.704 94.9861L93.1084 94.993ZM92.8045 71.6439C92.8045 77.3667 92.8045 83.0895 92.8045 88.8124C92.8045 89.1882 92.895 89.2764 93.2685 89.2764C100.408 89.2656 107.547 89.2656 114.685 89.2764C115.07 89.2764 115.149 89.172 115.149 88.8124C115.138 77.3667 115.138 65.921 115.149 54.4754C115.149 54.1018 115.061 54.0114 114.685 54.0114C107.547 54.0253 100.407 54.0253 93.2662 54.0114C92.8811 54.0114 92.8138 54.1181 92.8161 54.4754C92.8084 60.1982 92.8045 65.921 92.8045 71.6439ZM105.491 91.9166C105.497 91.5111 105.343 91.1196 105.061 90.828C104.921 90.6837 104.755 90.5683 104.57 90.4883C104.386 90.4084 104.188 90.3655 103.987 90.3622C103.582 90.3554 103.19 90.51 102.899 90.792C102.607 91.0739 102.44 91.4601 102.433 91.8656C102.426 92.2711 102.581 92.6627 102.863 92.9542C103.145 93.2457 103.531 93.4133 103.936 93.42C104.342 93.4268 104.733 93.2722 105.025 92.9903C105.316 92.7083 105.484 92.3221 105.491 91.9166ZM103.922 52.0602C104.966 52.0602 106.01 52.0602 107.054 52.0602C107.307 52.0602 107.565 52.0602 107.572 51.7191C107.579 51.3781 107.324 51.3317 107.045 51.3317C104.985 51.3317 102.925 51.3317 100.867 51.3317C100.609 51.3317 100.366 51.3618 100.354 51.6843C100.338 52.0509 100.607 52.0579 100.878 52.0579C101.885 52.0579 102.901 52.0602 103.915 52.0602H103.922Z" fill="#4772FD"/>
<path d="M92.8045 71.6439C92.8045 65.921 92.8045 60.1982 92.8045 54.4754C92.8045 54.1134 92.8695 54.0114 93.2546 54.0114C100.396 54.0253 107.535 54.0253 114.673 54.0114C115.045 54.0114 115.137 54.0972 115.137 54.4754C115.127 65.921 115.127 77.3667 115.137 88.8124C115.137 89.1743 115.07 89.2764 114.673 89.2764C107.535 89.2625 100.397 89.2625 93.2569 89.2764C92.8857 89.2764 92.7929 89.1929 92.7929 88.8124C92.8006 83.088 92.8045 77.3652 92.8045 71.6439Z" fill="white"/>
<path d="M105.484 91.9166C105.48 92.1174 105.437 92.3155 105.358 92.4997C105.278 92.684 105.162 92.8506 105.018 92.9902C104.873 93.1298 104.703 93.2396 104.516 93.3134C104.329 93.3871 104.13 93.4234 103.929 93.42C103.728 93.4166 103.53 93.3738 103.346 93.2939C103.162 93.2139 102.995 93.0985 102.856 92.9541C102.716 92.8098 102.606 92.6394 102.532 92.4526C102.459 92.2658 102.422 92.0663 102.426 91.8656C102.429 91.6648 102.472 91.4666 102.552 91.2824C102.632 91.0982 102.747 90.9315 102.892 90.7919C103.036 90.6523 103.206 90.5425 103.393 90.4688C103.58 90.395 103.779 90.3588 103.98 90.3622C104.181 90.3655 104.379 90.4084 104.563 90.4883C104.748 90.5682 104.914 90.6837 105.054 90.828C105.194 90.9723 105.303 91.1428 105.377 91.3296C105.451 91.5163 105.487 91.7158 105.484 91.9166Z" fill="#FDFDFD"/>
<path d="M103.915 52.0602C102.901 52.0602 101.885 52.0602 100.871 52.0602C100.6 52.0602 100.331 52.0602 100.347 51.6866C100.359 51.3641 100.602 51.334 100.86 51.334C102.92 51.334 104.979 51.334 107.038 51.334C107.317 51.334 107.569 51.3734 107.565 51.7214C107.56 52.0694 107.3 52.0625 107.047 52.0625C106.003 52.0578 104.959 52.0602 103.915 52.0602Z" fill="white"/>
</g>
<defs>
<clipPath id="clip0_762_1663">
<rect width="127" height="95" fill="white"/>
</clipPath>
</defs>
</svg>
