<svg width="73" height="111" viewBox="0 0 73 111" fill="none" xmlns="http://www.w3.org/2000/svg">
<path d="M69.8856 33.772C67.6844 11.2096 47.6901 4.83434 47.6901 4.83434C47.6901 4.83434 43.1729 3 37.0589 3H36.7527C29.1712 3 25.3099 4.83434 25.3099 4.83434C25.3099 4.83434 5.31562 11.2096 3.11442 33.772C1.62716 49.0168 15.13 69.3594 15.13 69.3594C23.6946 83.9298 36.5086 105.068 36.5086 105.068C36.5086 105.068 49.3067 83.9298 57.8713 69.3594C57.8713 69.3594 71.3728 49.0168 69.8856 33.772Z" stroke="#4772FD" stroke-width="6" stroke-miterlimit="10"/>
<path d="M36.9757 24.6623C41.6961 24.6623 46.3559 25.689 50.8282 27.716C53.8991 29.1043 56.6427 30.9175 58.9785 33.1042C59.6476 33.7324 60.025 34.4938 60.0395 35.246C60.0514 35.824 59.8442 36.3466 59.4404 36.757C59.0049 37.2004 58.4321 37.434 57.7855 37.434C57.0307 37.434 56.2586 37.1107 55.6094 36.5248C52.3999 33.6281 48.7379 31.6196 44.7221 30.5546C41.8914 29.8011 39.107 29.4184 36.4465 29.4184C29.6595 29.4184 23.3792 31.8941 17.7798 36.7781C17.0725 37.3958 16.4694 37.7785 15.6512 37.7785L15.5865 37.7771C13.9713 37.7415 13.2045 37.149 13.0277 35.7963C13.0369 34.7195 13.5265 34.2417 14.0544 33.7271C18.9464 28.9657 25.0182 26.0347 32.1008 25.016C33.7293 24.7811 35.3697 24.6623 36.9757 24.6623Z" fill="#4772FD"/>
<path d="M35.5335 34.2998C35.6377 34.2998 35.7406 34.3011 35.866 34.3038C36.0178 34.3011 36.1709 34.2998 36.3213 34.2998C42.7256 34.2998 47.9278 36.2476 52.6931 40.4297C53.2632 40.9298 53.5984 41.5738 53.6366 42.2429C53.6723 42.8552 53.4519 43.4583 53.0164 43.9386C52.5888 44.4111 51.9554 44.6829 51.2771 44.6829C50.6463 44.6829 50.0274 44.4507 49.5364 44.0271C46.3191 41.2571 43.0661 39.688 39.5927 39.2314C38.6241 39.1034 37.6634 39.0387 36.7357 39.0387C32.3834 39.0387 28.4666 40.4547 25.0923 43.2471L24.856 43.4411C24.5736 43.6721 24.2899 43.903 24.022 44.1432C23.4493 44.646 22.7472 44.9218 22.0438 44.9218C21.4157 44.9218 20.8469 44.6935 20.4431 44.2778C19.9759 43.7988 19.7265 43.1983 19.7397 42.586C19.7529 41.9301 20.067 41.2808 20.6212 40.7583C22.8607 38.6455 25.3602 37.0315 28.0483 35.9613C30.7483 34.891 33.4062 34.2998 35.5335 34.2998Z" fill="#4772FD"/>
<path d="M36.7488 43.8463C40.552 43.8845 43.8182 45.2636 46.4549 47.9425C47.3589 48.8636 47.4262 50.1991 46.6146 51.1176C46.1435 51.6481 45.4955 51.9411 44.7882 51.9411C44.2801 51.9411 43.7799 51.7867 43.3405 51.4937C43.128 51.3525 42.9037 51.1717 42.6384 50.9289C41.006 49.4298 38.9394 48.605 36.8187 48.605C34.6017 48.605 32.4757 49.4984 30.8327 51.1229C30.1821 51.7682 29.5144 52.081 28.7899 52.081C28.5668 52.081 28.3319 52.0506 28.0918 51.9926C27.2168 51.7748 26.6533 51.2126 26.4184 50.3219C26.2046 49.4997 26.4052 48.7792 27.0307 48.1193C29.6476 45.348 32.8267 43.9505 36.7488 43.8463Z" fill="#4772FD"/>
<path d="M36.8228 53.1433C38.8723 53.1459 40.5535 54.7691 40.5707 56.7618C40.5892 58.6648 38.8248 60.4186 36.8215 60.4437C34.8618 60.4437 33.1093 58.7677 33.0723 56.8595C33.0552 55.9067 33.4286 54.9922 34.1241 54.2848C34.8354 53.5603 35.8172 53.1446 36.8176 53.1446H36.8228" fill="#4772FD"/>
</svg>
