<svg xmlns="http://www.w3.org/2000/svg" viewBox="0 0 169.18 39.55"><defs/><path fill="#fff" d="M22.24 11.75H3.4c-1.02 0-1.62.5-1.73 1.14l.02 3c-.1.63.32 1.15.95 1.15h9.09l-2.7 1.97.04 12.28c-.1.64.34 1.15.97 1.15h4.86c.63 0 1.23-.51 1.33-1.15V17.04h5.65a1.4 1.4 0 001.33-1.15l-.01-3a.95.95 0 00-.96-1.14"/><path fill="#40c1f3" d="M21.88 17.04h-5.65v14.25c-.1.64-.7 1.15-1.33 1.15h-4.86c-.63 0-1.07-.51-.97-1.15l-.03-12.28 2.69-1.97H2.64c-.63 0-1.06-.52-.95-1.15l-.02-3c.1-.63.7-1.14 1.73-1.14h18.84c.63 0 1.06.5.96 1.14l.01 3a1.4 1.4 0 01-1.33 1.15m7.72-2.72L8.25.8C4.55-1.52 0 1.47 0 6.22v27.1c0 4.77 4.57 7.76 8.26 5.41l21.35-13.6c3.75-2.38 3.74-8.44 0-10.81"/><path fill="#fff" d="M73.3 30.32l-.24-2.06c-.02-.2-.09-.34-.2-.42-.1-.07-.23-.1-.48-.07a8.92 8.92 0 01-.97.08c-.24 0-.54-.04-.65-.2-.07-.1-.16-.34-.16-.85V11.78c0-.26-.08-.45-.23-.55a1 1 0 00-.55-.13h-2.74c-.23 0-.4.03-.53.09-.26.12-.26.5-.26.62v15.8c0 .76.08 1.4.24 1.9.16.51.4.93.7 1.23.31.3.7.52 1.15.64.44.13.94.19 1.49.19.41 0 .9-.04 1.47-.1a6.08 6.08 0 001.45-.33c.23-.1.37-.19.44-.28.1-.11.12-.29.08-.54M131.17 20.2a5.21 5.21 0 00-1.4-2.24 5.7 5.7 0 00-2.36-1.25 12.67 12.67 0 00-4.29-.36 48.62 48.62 0 00-2.99.25c-.74.15-1.23.43-1.47.83-.24.38-.36.9-.36 1.55v11.6c0 .27.08.46.22.56.13.09.3.13.55.13h2.78c.32 0 .51-.05.62-.15.1-.1.15-.28.15-.53V20.06c.3-.05.6-.08.88-.09h.76c.6 0 1.12.06 1.52.2.39.13.7.33.91.6.23.27.39.61.48 1.01.1.42.14.92.14 1.5v7.3c0 .27.08.46.22.56.12.09.3.13.54.13h2.8c.31 0 .5-.05.6-.15.11-.1.16-.28.16-.53v-7.07c0-1.29-.16-2.4-.46-3.32M154.97 16.65c-.07-.16-.23-.26-.48-.3a9.26 9.26 0 00-3.5.22c-.62.16-1.23.36-1.82.6v-.25c.01-.2-.15-.39-.41-.47l-2.7-.8a.66.66 0 00-.55.08c-.15.12-.23.31-.23.6v14.26c0 .26.07.45.22.55.12.09.3.13.55.13h2.76c.3 0 .49-.04.6-.12.13-.1.19-.28.19-.56v-9.27a5.14 5.14 0 012.63-1.09c.6-.07 1.2-.06 1.83.03.28.02.45.01.56-.03.26-.08.28-.42.28-.53l.15-2.66c0-.15-.03-.28-.08-.4M63.65 24.7c.4-.39.6-1.06.6-2.07 0-2-.55-3.58-1.64-4.67-1.08-1.09-2.73-1.64-4.88-1.64-1.05 0-2.01.18-2.85.52-.84.34-1.58.85-2.18 1.52a6.93 6.93 0 00-1.4 2.44c-.31.94-.48 2.03-.48 3.24 0 2.58.6 4.5 1.76 5.7 1.17 1.21 2.98 1.83 5.4 1.83.76 0 1.6-.1 2.5-.3a7.1 7.1 0 002.38-.95c.18-.11.3-.23.36-.35.07-.14.06-.33-.04-.55l-.87-1.95c-.1-.2-.2-.31-.34-.36-.13-.04-.3-.02-.59.08-.45.19-.95.35-1.48.47-.97.23-1.97.24-2.76.06a2.28 2.28 0 01-.94-.45c-.26-.21-.48-.5-.63-.85-.14-.3-.23-.7-.26-1.16h6.72c.68 0 1.23-.19 1.62-.56m-8.47-2.15c.08-.81.35-1.48.82-2a2.32 2.32 0 011.8-.79c.5 0 .9.08 1.2.22.3.15.55.34.73.58.18.25.31.54.4.88.07.34.11.71.11 1.11zM86.86 24.7c.4-.39.6-1.06.6-2.07 0-2-.55-3.58-1.64-4.67-1.09-1.09-2.73-1.64-4.89-1.64-1.05 0-2 .18-2.84.52-.85.34-1.58.85-2.19 1.52a6.9 6.9 0 00-1.39 2.44 10.1 10.1 0 00-.48 3.24c0 2.58.59 4.5 1.76 5.7 1.17 1.21 2.98 1.83 5.39 1.83.76 0 1.6-.1 2.5-.3.9-.19 1.7-.5 2.39-.95a.9.9 0 00.35-.35c.08-.14.06-.33-.03-.55l-.87-1.95c-.1-.2-.21-.31-.34-.36-.13-.04-.3-.02-.59.08-.46.19-.96.35-1.48.47-.98.23-1.97.24-2.77.06a2.28 2.28 0 01-.93-.45c-.27-.22-.48-.5-.64-.85-.14-.3-.22-.7-.25-1.16h6.72c.68 0 1.22-.19 1.62-.56m-8.47-2.15c.07-.81.34-1.48.81-2a2.32 2.32 0 011.82-.79c.48 0 .88.08 1.19.22.3.15.55.34.73.58.18.25.3.54.39.88.08.34.12.71.12 1.11zM115.75 24.7c.4-.39.6-1.06.6-2.07 0-2-.55-3.58-1.63-4.67-1.1-1.09-2.74-1.64-4.9-1.64-1.04 0-2 .18-2.84.52a5.9 5.9 0 00-2.18 1.52 6.94 6.94 0 00-1.4 2.44c-.31.94-.48 2.03-.48 3.24 0 2.58.6 4.5 1.76 5.7 1.17 1.21 2.99 1.83 5.4 1.83.76 0 1.6-.1 2.5-.3.9-.19 1.7-.5 2.39-.95.17-.11.29-.23.35-.35.07-.14.06-.33-.04-.55l-.87-1.95c-.1-.2-.2-.31-.34-.36-.13-.04-.3-.02-.58.08-.46.19-.96.35-1.49.47-.97.23-1.96.24-2.76.06a2.28 2.28 0 01-.94-.45c-.26-.22-.47-.5-.63-.85-.14-.3-.23-.7-.26-1.16h6.72c.68 0 1.23-.19 1.62-.56m-8.46-2.15c.07-.81.34-1.48.8-2a2.32 2.32 0 011.82-.79c.49 0 .88.08 1.2.22.3.15.54.34.72.58.18.25.31.54.4.88.07.34.11.71.11 1.11zM167.42 18.35c-1.18-1.35-2.96-2.03-5.28-2.03-1.08 0-2.07.18-2.93.53a6.16 6.16 0 00-3.6 3.92 9.9 9.9 0 00-.48 3.19c0 2.38.56 4.26 1.67 5.59 1.11 1.34 2.9 2.02 5.29 2.02 2.37 0 4.17-.68 5.34-2.02 1.16-1.33 1.75-3.23 1.75-5.65 0-2.34-.6-4.21-1.76-5.55m-2.67 7.23c-.1.49-.26.92-.48 1.29-.23.37-.52.65-.87.86-.35.2-.78.31-1.28.31-.98 0-1.68-.35-2.1-1.05a6.05 6.05 0 01-.64-3.09c0-1.24.23-2.23.7-2.96.45-.73 1.16-1.1 2.12-1.1.5 0 .93.11 1.27.32.34.2.62.49.84.85.21.36.37.8.46 1.3a9.54 9.54 0 01-.02 3.27M51.61 12.1c-.11-.1-.3-.16-.57-.16H37.19c-.26 0-.44.05-.55.16-.11.12-.16.3-.16.6v2.41c0 .47.26.74.7.74h6.08l-1.48 1.07V30.5c0 .28.07.48.22.6.14.11.33.17.6.17h2.9c.32 0 .53-.05.65-.16.13-.11.19-.3.19-.6V15.84h4.7c.47 0 .74-.27.74-.74v-2.4c0-.3-.06-.5-.17-.6M143.8 30.35l-.33-2.24c-.02-.35-.3-.52-.68-.45a9.84 9.84 0 01-1 .1l-.56.06-.44.03c-.48 0-.83-.1-1.06-.26-.2-.16-.31-.47-.31-.93v-6.7h2.78c.1 0 .45 0 .55-.24.05-.1.08-.26.08-.47v-1.92a.89.89 0 00-.1-.43c-.12-.23-.43-.23-.53-.23h-2.78v-3.43c0-.28-.08-.48-.23-.59a.6.6 0 00-.36-.1.9.9 0 00-.21.02l-2.48.8c-.23.07-.4.16-.53.27-.14.13-.21.32-.24.6l-.18 2.39-1.86.43c-.26.07-.4.15-.48.25-.07.1-.1.25-.1.48v1.46c0 .18.03.33.1.46.1.17.28.25.55.25h3.17l-1.47 1.07v6.44c0 1.33.36 2.36 1.06 3.05.7.7 1.87 1.05 3.47 1.05.46 0 1.04-.03 1.72-.08.68-.06 1.36-.19 2.05-.4.12-.03.43-.14.43-.4l-.03-.34M96.9 27.94a8.8 8.8 0 003.2-.64c.24-.1.4-.14.5-.1.1.03.17.15.24.36l.77 2.08c.11.18.16.33.14.45-.02.12-.13.24-.33.34-1.4.76-3.11 1.14-5.15 1.14-2.2 0-3.86-.64-4.99-1.91-1.13-1.28-1.7-3.17-1.7-5.68 0-2.38.63-4.26 1.87-5.64a6.49 6.49 0 015.07-2.07c1.69 0 3.16.32 4.4.96.23.1.37.2.4.3.03.09 0 .24-.1.47l-.78 2.15c-.09.2-.19.3-.3.33-.12.02-.3 0-.57-.09a9.23 9.23 0 00-2.74-.5c-1.04 0-1.8.38-2.3 1.15a5.3 5.3 0 00-.75 2.94c0 1.26.24 2.24.7 2.92.47.7 1.28 1.04 2.43 1.04"/></svg>